<svg width="14" height="7" viewBox="0 0 14 7" fill="none" xmlns="http://www.w3.org/2000/svg">
<path d="M14 0.488824C14 0.552999 13.9865 0.616552 13.9601 0.675851C13.9337 0.735151 13.895 0.789035 13.8463 0.834428L7.37147 6.85694C7.27297 6.94854 7.13939 7 7.00011 7C6.86083 7 6.72725 6.94854 6.62875 6.85694L0.153948 0.834428C0.105157 0.789064 0.0664488 0.735206 0.0400344 0.675927C0.01362 0.616648 1.62748e-05 0.55311 1.45937e-08 0.48894C-1.62456e-05 0.42477 0.0135553 0.361226 0.0399397 0.301935C0.0663241 0.242644 0.105005 0.188767 0.153773 0.143382C0.202541 0.0979964 0.260442 0.0619915 0.324169 0.0374209C0.387897 0.0128502 0.456203 0.000194818 0.525188 0.000179696C0.594173 0.000164574 0.662486 0.0127894 0.726226 0.0373321C0.789966 0.0618748 0.847885 0.0978556 0.896676 0.14322L6.99994 5.82045L13.1032 0.14322C13.1767 0.0748427 13.2703 0.028272 13.3722 0.00940087C13.4741 -0.0094703 13.5798 0.000205825 13.6758 0.0372052C13.7718 0.0742047 13.8538 0.136865 13.9116 0.217256C13.9693 0.297647 14 0.392156 14 0.488824Z" fill="#C01313"/>
</svg>
