<svg width="30" height="29" viewBox="0 0 30 29" fill="none" xmlns="http://www.w3.org/2000/svg">
<path fill-rule="evenodd" clip-rule="evenodd" d="M11.0984 19.2735C15.8928 19.2735 19.6968 15.4734 19.6968 10.8867C19.6968 6.30004 15.8928 2.5 11.0984 2.5C6.30404 2.5 2.5 6.30004 2.5 10.8867C2.5 15.4734 6.30404 19.2735 11.0984 19.2735ZM11.0984 21.7735C17.2279 21.7735 22.1968 16.8993 22.1968 10.8867C22.1968 4.87416 17.2279 0 11.0984 0C4.96893 0 0 4.87416 0 10.8867C0 16.8993 4.96893 21.7735 11.0984 21.7735Z" fill="#C01313"/>
<path d="M18.6498 19.3205C18.157 18.8371 18.157 18.0533 18.6498 17.5698C19.1427 17.0864 19.9417 17.0864 20.4345 17.5698L29.1135 26.0833C29.6064 26.5667 29.6064 27.3505 29.1135 27.8339C28.6207 28.3174 27.8217 28.3174 27.3288 27.8339L18.6498 19.3205Z" fill="#C01313"/>
</svg>
